<?xml version="1.0" encoding="UTF-8"?>
<svg version="1.1" xmlns="http://www.w3.org/2000/svg" width="653" height="313">
<path d="M0 0 C4.48885513 0.00684928 8.97767652 -0.0037196 13.46652472 -0.01193976 C22.23758162 -0.02521751 31.00856112 -0.02242599 39.77962094 -0.01370184 C46.9143322 -0.00690167 54.04902191 -0.00601862 61.18373549 -0.00927329 C62.2026946 -0.00973299 63.2216537 -0.01019269 64.27149035 -0.01066632 C66.34208385 -0.01162558 68.41267735 -0.01259823 70.48327083 -0.01358409 C89.85915161 -0.02212065 109.23498968 -0.01233138 128.61086345 0.00381701 C145.20153026 0.01721657 161.79213407 0.01489168 178.38279974 0.00106072 C197.6920856 -0.01502932 217.0013341 -0.02129471 236.31062573 -0.01210248 C238.37352307 -0.01114693 240.43642042 -0.01020382 242.49931777 -0.00927329 C244.021424 -0.00857905 244.021424 -0.00857905 245.57427986 -0.00787079 C252.69194466 -0.005291 259.80958558 -0.00963001 266.92724669 -0.01671195 C275.61351748 -0.0251654 284.29970704 -0.02276665 292.98596864 -0.00686972 C297.40965004 0.00096192 301.83319649 0.00419294 306.25687659 -0.00581717 C346.56145451 -0.08949813 346.56145451 -0.08949813 365.97093451 6.07967401 C366.78908637 6.33386102 367.60723822 6.58804803 368.45018256 6.84993768 C407.35270569 19.36060567 439.24217952 46.45668276 459.19359076 82.04061151 C478.20103095 119.18954928 482.84569745 162.72081555 470.47093451 202.79842401 C463.4510266 224.07982903 452.92602393 242.8008851 437.90843451 259.39217401 C437.17109076 260.26100213 436.43374701 261.12983026 435.67405951 262.02498651 C411.93580109 289.66186401 374.1496359 308.39243372 337.90843451 311.39217401 C332.93591256 311.54241985 327.96398946 311.5359994 322.98965704 311.5326159 C321.46599207 311.53520241 319.94232777 311.53821636 318.4186644 311.5416193 C314.24343355 311.54965937 310.06821992 311.5514772 305.89298224 311.55221677 C301.38487355 311.55407262 296.87677367 311.56162274 292.36867011 311.56835198 C282.5148778 311.58191582 272.66108957 311.58795734 262.80728948 311.59236264 C256.6481001 311.59512907 250.48891228 311.59936722 244.32972395 311.60386682 C227.25936191 311.61605828 210.18900112 311.62635696 193.11863482 311.62974191 C191.48075013 311.63007126 191.48075013 311.63007126 189.80977686 311.63040726 C188.71530968 311.63062554 187.62084251 311.63084381 186.49320966 311.63106871 C184.27557953 311.63151216 182.0579494 311.63195873 179.84031928 311.63240838 C178.74030911 311.63262981 177.64029894 311.63285124 176.50695512 311.63307938 C158.70176686 311.63702339 140.89661963 311.65446584 123.0914472 311.6777679 C104.7882897 311.7015272 86.48515275 311.71394588 68.1819796 311.71510983 C57.91478729 311.71602416 47.6476484 311.72171508 37.38047087 311.73992944 C28.63358182 311.75539251 19.8867627 311.76041458 11.13986256 311.75219133 C6.6838391 311.74830633 2.22795619 311.74910808 -2.22804964 311.76324868 C-36.52927681 311.86590424 -36.52927681 311.86590424 -52.09156549 308.39217401 C-53.09740088 308.17178082 -54.10323627 307.95138764 -55.13955152 307.72431588 C-57.40950812 307.19754287 -59.61636528 306.58248169 -61.84156549 305.89217401 C-63.04945734 305.5214074 -63.04945734 305.5214074 -64.28175104 305.14315057 C-105.16458853 291.88131886 -137.5339508 262.74006905 -157.15406549 224.89217401 C-172.62042961 194.0162378 -177.80595796 154.06214711 -169.09156549 120.39217401 C-168.90884088 119.63613885 -168.72611627 118.88010369 -168.53785455 118.10115838 C-162.14260804 92.16313066 -149.03304674 69.02204698 -131.09156549 49.39217401 C-130.63056451 48.88589471 -130.16956354 48.37961541 -129.69459283 47.85799432 C-111.20545129 27.8318424 -86.29350921 13.02294761 -60.09156549 5.57967401 C-59.45364069 5.3969494 -58.81571588 5.21422479 -58.15846002 5.02596307 C-55.81577951 4.408477 -53.45972924 3.90447189 -51.09156549 3.39217401 C-49.51916431 3.02064737 -49.51916431 3.02064737 -47.91499746 2.64161515 C-32.10880935 -0.57073831 -16.05171318 -0.0362952 0 0 Z M-108.09156549 47.39217401 C-108.90883111 48.08826776 -109.72609674 48.78436151 -110.56812799 49.50154901 C-138.95908265 74.28869828 -155.81071313 108.92328692 -158.83765924 146.37654901 C-161.12865458 183.65126423 -148.69116749 220.5474637 -124.23756158 248.77742791 C-122.8669021 250.32635373 -121.48309962 251.86199432 -120.09156549 253.39217401 C-119.31297174 254.25455682 -118.53437799 255.11693963 -117.73219049 256.00545526 C-95.74600567 279.1352168 -62.09110562 296.24335796 -29.86928654 297.5198245 C-28.20113819 297.52169425 -28.20113819 297.52169425 -26.49928987 297.52360177 C-25.20698005 297.52744292 -23.91467023 297.53128406 -22.5831995 297.5352416 C-21.16131566 297.53446149 -19.73943188 297.53358273 -18.31754816 297.5326159 C-16.79744565 297.53520168 -15.27734382 297.53821544 -13.75724292 297.5416193 C-9.58729306 297.54966783 -5.41736044 297.55147768 -1.24740374 297.55221677 C3.25318593 297.55407113 7.75376673 297.56162051 12.25435126 297.56835198 C22.09360615 297.58192173 31.93285695 297.58795823 41.77211964 297.59236264 C47.92073492 297.59512801 54.06934864 297.59936596 60.21796286 297.60386682 C77.25483281 297.61605893 94.29170151 297.62635756 111.32857573 297.62974191 C112.41856949 297.62996147 113.50856325 297.63018104 114.63158713 297.63040726 C116.270414 297.63073468 116.270414 297.63073468 117.94234848 297.63106871 C120.15614148 297.63151217 122.36993448 297.63195873 124.58372748 297.63240838 C125.68183716 297.63262981 126.77994683 297.63285124 127.91133256 297.63307938 C145.68883618 297.63702404 163.46629873 297.65446818 181.2437865 297.6777679 C199.51300231 297.70151795 217.78219754 297.71394546 236.05142903 297.71510983 C246.30180509 297.71602466 256.55212765 297.72172847 266.80248892 297.73992944 C275.53445434 297.75537996 284.26634973 297.76042189 292.99832623 297.75219133 C297.4480192 297.74830197 301.89757139 297.74912987 306.34724677 297.76324868 C310.43243889 297.77609156 314.51738595 297.7747003 318.60257824 297.76265797 C320.06901676 297.76071874 321.53547329 297.76369575 323.00188665 297.77250233 C356.73101825 297.96199938 388.26243811 284.89360868 413.90843451 263.39217401 C414.77726264 262.66643182 415.64609076 261.94068963 416.54124701 261.19295526 C440.00421255 240.95117651 454.44004137 212.31281608 460.90843451 182.39217401 C461.15464545 181.26166619 461.40085639 180.13115838 461.65452826 178.96639276 C468.19274161 142.03676009 458.15382916 103.82244635 436.90843451 73.39217401 C426.45800766 58.88753259 413.06490819 45.88758844 397.90843451 36.39217401 C397.3338349 36.03188104 396.75923529 35.67158807 396.16722357 35.30037713 C373.1333795 21.09210522 347.95305418 13.87464033 320.96983588 14.01122308 C319.44522499 14.00775493 317.92061663 14.00298269 316.39601338 13.99704134 C312.25999185 13.98466036 308.12418126 13.99064195 303.98815954 14 C299.50682337 14.00684381 295.02552116 13.99628309 290.54419196 13.98806024 C281.78636927 13.97477709 273.02862407 13.97757635 264.27079844 13.98629816 C257.14796445 13.99309575 250.02515205 13.99398249 242.90231574 13.99072671 C241.88541906 13.99026701 240.86852238 13.98980731 239.82081065 13.98933368 C237.75448115 13.98837443 235.68815166 13.98740179 233.62182218 13.98641591 C214.28272715 13.97787789 194.94367491 13.98767116 175.6045869 14.00381701 C159.03999516 14.01721873 142.47546652 14.01489019 125.91087592 14.00106072 C106.63714129 13.98497679 87.36344408 13.97870171 68.08970368 13.98789752 C66.03132022 13.98885308 63.97293676 13.98979619 61.91455328 13.99072671 C60.3957286 13.99142095 60.3957286 13.99142095 58.84622058 13.99212921 C51.73864837 13.99471067 44.63110006 13.99036639 37.52353156 13.98328805 C28.85218437 13.97484152 20.18091857 13.97721912 11.50958061 13.99313028 C7.09222967 14.00097077 2.67501402 14.0041774 -1.74233568 13.99418283 C-5.79753433 13.98514696 -9.85247416 13.99031255 -13.90764982 14.00611548 C-15.36301741 14.00942612 -16.81840755 14.00785477 -18.27376026 14.00048812 C-51.29208751 13.84637141 -83.16292035 25.78167618 -108.09156549 47.39217401 Z " fill="#000000" transform="translate(174.09156548976898,0.6078259944915771)"/>
<path d="M0 0 C0.969375 0.825 1.93875 1.65 2.9375 2.5 C1.46632969 6.91351093 -1.66328582 8.60136065 -5.3125 11.3125 C-5.98152344 11.84037109 -6.65054688 12.36824219 -7.33984375 12.91210938 C-9.20803924 14.30499776 -10.94993259 15.51571918 -13.0625 16.5 C-15.68359375 16.0078125 -15.68359375 16.0078125 -18.0625 14.5 C-35.11174753 5.86716521 -52.38582776 2.63260905 -71.0625 8.5 C-89.40531541 15.62690801 -102.79898915 27.54968804 -111.0625 45.5 C-117.64258374 62.3464889 -116.96537785 81.00022313 -109.7421875 97.51953125 C-101.43654743 113.74503029 -88.2513158 125.53048515 -71.0625 131.5 C-53.7908201 136.77033951 -36.92292312 134.77747494 -20.7734375 126.89453125 C-5.2068815 118.2836642 5.67523812 105.18194744 10.65136719 88.01123047 C12.08132097 82.81364802 13.02123618 78.12132857 12.875 72.6875 C13.0806695 68.64065004 13.79677361 67.6401384 16.7421875 64.70703125 C19.999954 62.0841783 23.4396928 59.7891632 26.9375 57.5 C28.04158203 56.61828125 28.04158203 56.61828125 29.16796875 55.71875 C30.9375 54.5 30.9375 54.5 33.9375 54.5 C37.52097738 76.44879896 33.53465496 99.23182427 20.96875 117.75 C6.90461828 136.79067064 -11.57698846 150.823899 -35.27832031 155.12060547 C-59.81458769 158.46411297 -84.08307177 153.81710562 -104 138.6875 C-122.41600088 123.98125812 -134.31936235 102.93913155 -137.0625 79.5 C-138.54644765 54.79917368 -132.36744167 32.1710584 -116.26953125 12.93359375 C-87.02518448 -19.31282755 -35.77333454 -26.62495093 0 0 Z " fill="#000000" transform="translate(208.0625,86.5)"/>
<path d="M0 0 C66.18791946 0 66.18791946 0 79.09765625 10.74609375 C86.40199903 18.20551812 88.35635824 27.49784166 88.4375 37.625 C88.27144658 48.1769403 85.953056 56.80420322 79 65 C63.32807676 79.84534501 41.00571936 78.13517378 21 78 C21 89.22 21 100.44 21 112 C14.07 112 7.14 112 0 112 C0 75.04 0 38.08 0 0 Z M21 19 C21 31.87 21 44.74 21 58 C25.228125 58.0825 29.45625 58.165 33.8125 58.25 C35.7766687 58.30462402 35.7766687 58.30462402 37.78051758 58.36035156 C45.99907666 58.43716632 54.61070159 57.91168448 61.03051758 52.19042969 C66.11443724 46.60130961 66.35128259 41.56575856 66.27734375 34.171875 C65.91626319 30.04233399 64.88945013 27.96548829 62 25 C53.63310051 18.15435497 44.27346366 18.73506492 34 18.875 C27.565 18.936875 27.565 18.936875 21 19 Z " fill="#000000" transform="translate(307,96)"/>
<path d="M0 0 C0.82709473 -0.00547852 1.65418945 -0.01095703 2.50634766 -0.01660156 C12.31761014 0.09695925 21.02344892 1.93438715 28.75 8.3125 C33.29632082 14.31530804 34.87890639 19.92180537 34.86352539 27.36621094 C34.86341209 29.19765656 34.86341209 29.19765656 34.86329651 31.06610107 C34.85813522 32.37975647 34.85297394 33.69341187 34.84765625 35.046875 C34.84579021 36.4087926 34.84436718 37.77071088 34.84336853 39.13262939 C34.83955803 42.70991889 34.82974032 46.28716752 34.81866455 49.86444092 C34.80841884 53.51769457 34.80386415 57.17095486 34.79882812 60.82421875 C34.78811669 67.98699992 34.77053182 75.14973902 34.75 82.3125 C28.48 82.3125 22.21 82.3125 15.75 82.3125 C15.255 77.8575 15.255 77.8575 14.75 73.3125 C14.25371094 73.78300781 13.75742187 74.25351563 13.24609375 74.73828125 C5.05345422 82.24690533 -2.18467476 84.3125 -13.25 84.3125 C-20.60322725 83.61323322 -26.05555375 80.96624882 -31 75.375 C-35.78406839 68.86335135 -36.56806169 61.81673419 -36.109375 53.87890625 C-35.11058931 47.61478298 -32.01971985 43.40771401 -27.25 39.3125 C-21.32498268 35.67697982 -14.99628559 35.18592006 -8.19921875 35.21484375 C-7.54041214 35.2162587 -6.88160553 35.21767365 -6.20283508 35.21913147 C-4.11434238 35.224695 -2.02595989 35.23724053 0.0625 35.25 C1.48502449 35.25501972 2.90755066 35.2595818 4.33007812 35.26367188 C7.80342077 35.27465243 11.27669961 35.29189165 14.75 35.3125 C14.62711453 33.70764959 14.49354822 32.10361459 14.35546875 30.5 C14.28223389 29.60667969 14.20899902 28.71335938 14.13354492 27.79296875 C13.59179891 24.28937902 12.41465787 22.61706897 9.75 20.3125 C3.04927212 17.0400515 -4.83618065 17.73953848 -11.91796875 19.48828125 C-18.84585519 21.93683073 -24.21471557 26.05402034 -29.25 31.3125 C-29.42426756 27.39639516 -29.53084155 23.48128503 -29.625 19.5625 C-29.70041016 17.89574219 -29.70041016 17.89574219 -29.77734375 16.1953125 C-29.83274927 13.12954035 -29.80465545 10.32904717 -29.25 7.3125 C-21.92608545 0.03141536 -9.76928896 0.04706346 0 0 Z M-15.25 52.3125 C-16.52703446 55.84312469 -16.56683989 57.51108146 -15.1875 61 C-11.78583622 65.06005032 -8.59412073 66.1824238 -3.375 66.6875 C3.9233645 66.33929559 8.81760556 63.87689925 13.71875 58.51953125 C15.31266246 55.10831708 14.90532355 52.05191451 14.75 48.3125 C10.87525543 48.19581786 7.00096604 48.12508769 3.125 48.0625 C2.03058594 48.02898437 0.93617188 47.99546875 -0.19140625 47.9609375 C-6.48217828 47.88468572 -10.56836441 47.88608135 -15.25 52.3125 Z " fill="#000000" transform="translate(434.25,125.6875)"/>
<path d="M0 0 C7.59 0 15.18 0 23 0 C29.6 16.5 36.2 33 43 50 C44.78064174 47.32903739 45.62597763 45.45225356 46.58813477 42.45263672 C46.88506729 41.53513641 47.18199982 40.61763611 47.4879303 39.67233276 C47.80257736 38.68475983 48.11722443 37.69718689 48.44140625 36.6796875 C48.76914536 35.66528595 49.09688446 34.6508844 49.43455505 33.60574341 C50.48160135 30.36356019 51.52253484 27.1194609 52.5625 23.875 C53.60658778 20.62358359 54.6520191 17.37262394 55.70115662 14.12283325 C56.35419926 12.09947474 57.00422217 10.07513878 57.65101624 8.04977417 C57.9447966 7.13857819 58.23857697 6.2273822 58.54125977 5.28857422 C58.79948013 4.48265839 59.0577005 3.67674255 59.32374573 2.84640503 C60 1 60 1 61 0 C62.56172745 -0.08685603 64.12729344 -0.10702219 65.69140625 -0.09765625 C66.54162354 -0.09515869 67.39184082 -0.09266113 68.26782227 -0.09008789 C69.89868774 -0.07643188 69.89868774 -0.07643188 71.5625 -0.0625 C73.42439572 -0.05101163 75.28629371 -0.03988539 77.14819336 -0.02905273 C78.76546224 -0.01936849 80.38273112 -0.00968424 82 0 C77.33830652 14.24313554 72.40917747 28.36749704 67.25 42.4375 C66.5469153 44.35851638 65.84395474 46.27957821 65.14111328 48.20068359 C64.0871415 51.08153374 63.03295737 53.96230332 61.97744751 56.84259033 C60.12880931 61.89191418 58.2966641 66.94644108 56.49377441 72.01228333 C55.51680763 74.7573307 54.53258995 77.49975035 53.54772949 80.24197388 C52.8999495 82.05516426 52.26274704 83.87212295 51.62597656 85.68920898 C47.882405 96.07418211 43.80226602 105.0823134 34.24609375 111.10546875 C31.16572924 112.3322574 28.49555728 112.30174792 25.1875 112.3125 C23.41439453 112.33763672 23.41439453 112.33763672 21.60546875 112.36328125 C18 112 18 112 11 109 C11 102.73 11 96.46 11 90 C12.98 90.99 14.96 91.98 17 93 C20.02386373 93.65617296 21.80628564 93.40555103 25 93 C28.86374867 90.25244539 31.10284292 86.90293105 32.68725586 82.41943359 C33.36548831 77.17252994 30.51325821 72.47261218 28.375 67.8125 C27.83713253 66.5871136 27.30223357 65.36042074 26.77001953 64.13256836 C25.5639226 61.35724643 24.34408016 58.58845328 23.1171875 55.82226562 C19.3552364 47.29976566 15.77632147 38.69773551 12.16143799 30.1121521 C10.8877072 27.0926239 9.6076355 24.0758604 8.32568359 21.05981445 C7.92208618 20.10814392 7.51848877 19.15647339 7.10266113 18.17596436 C6.34236368 16.38322426 5.58049786 14.59114817 4.81677246 12.79986572 C4.47488892 11.99200623 4.13300537 11.18414673 3.78076172 10.35180664 C3.48386444 9.65318008 3.18696716 8.95455353 2.881073 8.23475647 C1.81444574 5.52935955 0.91961221 2.75883663 0 0 Z " fill="#000000" transform="translate(477,128)"/>
<path d="M0 0 C1.74960272 2.39231393 3.25856304 4.70467698 4.75 7.25 C5.38615234 8.27287109 5.38615234 8.27287109 6.03515625 9.31640625 C6.43089844 9.98027344 6.82664062 10.64414063 7.234375 11.328125 C7.59756836 11.9355957 7.96076172 12.54306641 8.33496094 13.16894531 C9.21150014 15.58232417 9.01225209 16.64973362 8 19 C6.35205078 20.60888672 6.35205078 20.60888672 4.1953125 22.1796875 C3.39407959 22.77144775 2.59284668 23.36320801 1.76733398 23.97290039 C0.89536377 24.60059326 0.02339355 25.22828613 -0.875 25.875 C-1.77468506 26.53556396 -2.67437012 27.19612793 -3.60131836 27.87670898 C-5.47662263 29.25241292 -7.35517648 30.62369719 -9.23681641 31.99072266 C-12.58271816 34.4237295 -15.90914742 36.88237695 -19.23510742 39.3425293 C-21.58090506 41.07610156 -23.93047588 42.80443329 -26.28125 44.53125 C-30.25162164 47.44812336 -34.21537717 50.37383799 -38.17724609 53.30224609 C-40.53432501 55.04170761 -42.89569597 56.77520027 -45.2578125 58.5078125 C-48.5410409 60.91733355 -51.80225693 63.35378006 -55.0546875 65.8046875 C-56.68208068 67.01590853 -58.30967768 68.22685578 -59.9375 69.4375 C-60.689104 70.01185791 -61.44070801 70.58621582 -62.21508789 71.17797852 C-62.91625732 71.69545654 -63.61742676 72.21293457 -64.33984375 72.74609375 C-64.95206787 73.20685303 -65.56429199 73.6676123 -66.19506836 74.14233398 C-68 75 -68 75 -69.8894043 74.84326172 C-72.61365627 73.75482143 -74.94844095 72.3289219 -77.4296875 70.76171875 C-78.99396484 69.77848633 -78.99396484 69.77848633 -80.58984375 68.77539062 C-81.67394531 68.08638672 -82.75804687 67.39738281 -83.875 66.6875 C-85.48955078 65.67139648 -85.48955078 65.67139648 -87.13671875 64.63476562 C-89.20806452 63.32836197 -91.26995037 62.00680542 -93.32080078 60.66845703 C-95.83894654 59.01004516 -95.83894654 59.01004516 -98.08154297 58.09326172 C-99.734375 57.34765625 -99.734375 57.34765625 -102 55 C-102.72598878 50.5613347 -102.56172872 46.23148921 -102.375 41.75 C-102.34792969 40.52796875 -102.32085937 39.3059375 -102.29296875 38.046875 C-102.22224838 35.02947259 -102.12359116 32.0156243 -102 29 C-95.8106218 31.95580202 -90.07774731 35.35399443 -84.3125 39.0625 C-81.89328106 40.6081644 -79.47385134 42.15294142 -77.04541016 43.68408203 C-75.40714518 44.73806248 -73.81080513 45.8570925 -72.23046875 46.99609375 C-70.03856539 48.2404002 -70.03856539 48.2404002 -67.6640625 47.546875 C-63.9834934 45.40977036 -60.71167925 42.88448488 -57.375 40.25 C-55.85009629 39.0649405 -54.32401156 37.88139948 -52.796875 36.69921875 C-52.00732422 36.08739746 -51.21777344 35.47557617 -50.40429688 34.84521484 C-46.51817532 31.86275072 -42.57452285 28.96020773 -38.625 26.0625 C-37.84334473 25.48862549 -37.06168945 24.91475098 -36.25634766 24.32348633 C-34.65783545 23.15049265 -33.05903776 21.97788792 -31.45996094 20.80566406 C-28.91047832 18.93428917 -26.36485204 17.05777728 -23.8203125 15.1796875 C-22.97130371 14.55312256 -22.12229492 13.92655762 -21.24755859 13.28100586 C-19.63312233 12.08935305 -18.01885293 10.89747413 -16.40478516 9.70532227 C-14.95216503 8.63404272 -13.49766994 7.56529935 -12.04101562 6.49951172 C-10.68858542 5.50589613 -9.34336845 4.50238133 -8.00585938 3.48876953 C-3.32804273 0 -3.32804273 0 0 0 Z " fill="#000000" transform="translate(226,104)"/>
</svg>
