<?xml version="1.0" encoding="UTF-8"?>
<svg version="1.1" xmlns="http://www.w3.org/2000/svg" width="512" height="512">
<path d="M0 0 C0.99128906 0.87011719 1.98257812 1.74023438 3.00390625 2.63671875 C8.42752444 7.455253 13.47844054 12.32516829 18 18 C18.42893555 18.53302734 18.85787109 19.06605469 19.29980469 19.61523438 C36.18253286 40.76150866 47.69052219 64.71306772 54 91 C54.17934082 91.72074707 54.35868164 92.44149414 54.54345703 93.18408203 C60.17118935 116.87420846 59.15815938 145.58955656 53 169 C52.68651611 170.24740967 52.68651611 170.24740967 52.36669922 171.52001953 C47.60870623 190.10648651 39.87617086 207.09862737 29.27148438 223.0592041 C27.93644149 225.09701581 26.64067286 227.15588129 25.35253906 229.22363281 C24.90976624 229.93384583 24.46699341 230.64405884 24.01080322 231.37579346 C23.67723816 231.91178162 23.3436731 232.44776978 23 233 C23.58899204 233.58622666 24.17798409 234.17245333 24.78482437 234.77644444 C39.12356426 249.04889734 53.4539675 263.32967365 67.77516556 277.61972904 C74.70102179 284.53012417 81.6296594 291.43768662 88.56494141 298.33862305 C94.61055135 304.3543076 100.65084839 310.37526789 106.68485618 316.40259069 C109.87924307 319.59307068 113.07620649 322.78086785 116.27954865 325.96235847 C119.29670508 328.95910029 122.30668879 331.9628651 125.31140327 334.97208023 C126.41330415 336.07315814 127.51776405 337.17168222 128.62500572 338.2673893 C142.53604156 352.04062341 142.53604156 352.04062341 143.25 362.75 C143.15116071 368.64741081 141.48006929 373.23991761 137.6875 377.75 C131.50152405 382.92895661 127.24945529 385.39389837 119.1328125 385.19921875 C106.03101382 383.97542437 96.64561305 370.792048 87.95068359 362.06420898 C86.88539789 360.99864041 85.81989037 359.93329356 84.75418091 358.8681488 C81.89311805 356.00737004 79.03512471 353.1435432 76.17771864 350.27911258 C73.17934291 347.27443824 70.17808949 344.27264098 67.17715454 341.27052307 C61.50891935 335.5991936 55.84323564 329.92532243 50.17848933 324.25050837 C43.72330157 317.78410001 37.26523622 311.32056876 30.80694079 304.8572644 C17.53478112 291.57468349 4.26619645 278.28853664 -9 265 C-9.74620605 265.47526627 -10.49241211 265.95053253 -11.26123047 266.44020081 C-12.24494629 267.06651901 -13.22866211 267.69283722 -14.2421875 268.33813477 C-15.21526855 268.95777603 -16.18834961 269.5774173 -17.19091797 270.21583557 C-32.8950668 280.1901914 -48.65489057 288.05650035 -66.5625 293.3125 C-67.33948242 293.54291992 -68.11646484 293.77333984 -68.91699219 294.01074219 C-83.61589911 298.0847982 -98.23495448 299.5323738 -113.4375 299.375 C-114.64865479 299.36802094 -114.64865479 299.36802094 -115.88427734 299.36090088 C-127.80377316 299.28053083 -139.38253099 298.89073172 -151 296 C-152.24160889 295.70198486 -152.24160889 295.70198486 -153.50830078 295.39794922 C-166.28714158 292.2567685 -178.23965601 287.89058399 -190 282 C-190.7434668 281.62891113 -191.48693359 281.25782227 -192.25292969 280.87548828 C-212.14511673 270.77539073 -231.00350145 256.50352189 -245 239 C-245.76699219 238.05898438 -246.53398437 237.11796875 -247.32421875 236.1484375 C-253.68396748 228.21200363 -259.05715536 219.88036495 -264 211 C-264.34272949 210.39381836 -264.68545898 209.78763672 -265.03857422 209.16308594 C-275.2447507 190.88088756 -280.94960431 170.62488891 -284 150 C-284.15082031 149.00613281 -284.30164063 148.01226562 -284.45703125 146.98828125 C-284.77188784 144.31409924 -284.91619839 141.69212682 -285 139 C-285.02578125 138.30600098 -285.0515625 137.61200195 -285.078125 136.89697266 C-286.4248363 95.91486426 -275.05297516 55.1277247 -249 23 C-248.56929199 22.46777832 -248.13858398 21.93555664 -247.69482422 21.38720703 C-218.7729536 -14.14239907 -178.50527759 -37.03309203 -132.75 -42.375 C-84.59204031 -47.11733096 -36.09273756 -32.4706111 0 0 Z M-147 5 C-147.67562988 5.18191895 -148.35125977 5.36383789 -149.04736328 5.55126953 C-181.40369381 14.58714022 -208.51573844 37.05697759 -225.11376953 65.93798828 C-240.66381456 93.94497921 -245.81772294 126.72910826 -238 158 C-237.75854248 158.96776367 -237.75854248 158.96776367 -237.51220703 159.95507812 C-231.28245699 184.06020123 -218.54752232 203.58808449 -201 221 C-200.25363281 221.75539063 -199.50726563 222.51078125 -198.73828125 223.2890625 C-175.7496136 245.42629802 -143.21452057 256.44878363 -111.63867188 256.30273438 C-87.13323354 255.70178357 -62.04367491 248.30033536 -42 234 C-40.97519531 233.27167969 -39.95039063 232.54335938 -38.89453125 231.79296875 C-10.23821532 210.86540951 7.10133587 180.80411792 13 146 C17.68352122 113.00751346 8.93771279 79.51158951 -10.69580078 52.69726562 C-30.26187588 27.23426411 -56.75489931 10.01420628 -88 3 C-89.02351562 2.75507812 -90.04703125 2.51015625 -91.1015625 2.2578125 C-109.38388608 -1.33951802 -129.12389958 0.13632591 -147 5 Z " fill="#000000" transform="translate(327,85)"/>
</svg>
