<?xml version="1.0" encoding="UTF-8"?>
<!DOCTYPE svg PUBLIC "-//W3C//DTD SVG 1.1//EN" "http://www.w3.org/Graphics/SVG/1.1/DTD/svg11.dtd">
<svg xmlns="http://www.w3.org/2000/svg" version="1.1" width="512px" height="512px" style="shape-rendering:geometricPrecision; text-rendering:geometricPrecision; image-rendering:optimizeQuality; fill-rule:evenodd; clip-rule:evenodd" xmlns:xlink="http://www.w3.org/1999/xlink">
<g><path style="opacity:0.972" fill="#000000" d="M 511.5,121.5 C 511.5,125.5 511.5,129.5 511.5,133.5C 495.362,197.383 479.195,261.383 463,325.5C 459.37,331.07 454.203,334.237 447.5,335C 346.833,335.667 246.167,335.667 145.5,335C 136.127,333.294 130.293,327.794 128,318.5C 107.339,232.189 86.8387,145.856 66.5,59.5C 48.4969,59.6666 30.4969,59.4999 12.5,59C 6.31536,56.6469 1.98203,52.4802 -0.5,46.5C -0.5,42.5 -0.5,38.5 -0.5,34.5C 2.49218,27.3495 7.82552,22.8495 15.5,21C 38.8333,20.3333 62.1667,20.3333 85.5,21C 93.5563,22.7224 98.723,27.5557 101,35.5C 106.449,59.4611 112.282,83.2944 118.5,107C 244.5,107.333 370.5,107.667 496.5,108C 503.771,110.102 508.771,114.602 511.5,121.5 Z M 127.5,146.5 C 240.834,146.333 354.167,146.5 467.5,147C 454.936,196.423 442.603,245.923 430.5,295.5C 341.167,295.5 251.833,295.5 162.5,295.5C 151.307,245.726 139.64,196.059 127.5,146.5 Z"/></g>
<g><path style="opacity:0.969" fill="#000000" d="M 165.5,361.5 C 198.283,360.294 221.117,374.627 234,404.5C 242.862,438.273 232.695,464.44 203.5,483C 172.14,496.534 144.973,490.701 122,465.5C 104.082,439.161 104.082,412.828 122,386.5C 133.532,372.823 148.032,364.49 165.5,361.5 Z M 172.5,400.5 C 187.903,402.069 196.57,410.569 198.5,426C 194.777,445.72 183.11,453.387 163.5,449C 150.053,441.934 145.553,431.101 150,416.5C 154.645,407.004 162.145,401.67 172.5,400.5 Z"/></g>
<g><path style="opacity:0.969" fill="#000000" d="M 397.5,361.5 C 429.263,360.284 451.763,373.95 465,402.5C 475.633,440.393 463.467,468.226 428.5,486C 394.091,496.312 367.257,486.479 348,456.5C 334.961,427.235 339.461,401.068 361.5,378C 371.938,368.946 383.938,363.446 397.5,361.5 Z M 404.5,400.5 C 426.785,405.065 433.951,418.065 426,439.5C 414.509,452.384 401.676,453.884 387.5,444C 377.782,432.867 377.282,421.367 386,409.5C 391.276,404.444 397.442,401.444 404.5,400.5 Z"/></g>
</svg>
