<svg width="27" height="26" viewBox="0 0 27 26" fill="none" xmlns="http://www.w3.org/2000/svg">
<rect x="0.215942" width="26.1337" height="25.7691" rx="8" fill="black"/>
<path d="M13.9247 17.3941C9.01381 17.3941 6.21272 14.0085 6.09601 8.37494H8.55594C8.63674 12.5099 10.4503 14.2613 11.8867 14.6225V8.37494H14.203V11.9411C15.6215 11.7876 17.1118 10.1625 17.6146 8.37494H19.9309C19.7414 9.30203 19.3638 10.1798 18.8215 10.9535C18.2793 11.7271 17.5842 12.3799 16.7796 12.871C17.6777 13.3197 18.4709 13.9549 19.107 14.7346C19.743 15.5143 20.2074 16.4207 20.4695 17.3941H17.9198C17.6845 16.5486 17.2063 15.7918 16.5452 15.2184C15.884 14.6451 15.0692 14.2807 14.203 14.171V17.3941H13.9247V17.3941Z" fill="white"/>
</svg>
