<svg width="27" height="26" viewBox="0 0 27 26" fill="none" xmlns="http://www.w3.org/2000/svg">
<rect x="0.431946" width="26.1337" height="25.7691" rx="8" fill="black"/>
<path d="M18.6777 7.77098C17.387 6.50266 15.666 5.79803 13.8494 5.79803C10.0727 5.79803 7.0132 8.80443 7.0132 12.5154C7.0132 13.6898 7.34784 14.8642 7.9215 15.8507L6.96539 19.3268L10.5986 18.3873C11.6025 18.904 12.7021 19.1859 13.8494 19.1859C17.626 19.1859 20.6856 16.1795 20.6856 12.4685C20.6378 10.7304 19.9685 9.0393 18.6777 7.77098ZM17.148 14.9112C17.0045 15.287 16.3353 15.6628 16.0006 15.7097C15.7138 15.7567 15.3314 15.7567 14.9489 15.6628C14.7099 15.5688 14.3752 15.4749 13.9928 15.287C12.2718 14.5823 11.1723 12.8912 11.0767 12.7503C10.9811 12.6564 10.3596 11.8578 10.3596 11.0122C10.3596 10.1667 10.7898 9.7909 10.9332 9.603C11.0767 9.4151 11.2679 9.4151 11.4113 9.4151C11.5069 9.4151 11.6503 9.4151 11.7459 9.4151C11.8416 9.4151 11.985 9.36812 12.1284 9.69695C12.2718 10.0258 12.6064 10.8713 12.6542 10.9183C12.7021 11.0122 12.7021 11.1062 12.6542 11.2001C12.6064 11.2941 12.5586 11.388 12.463 11.482C12.3674 11.5759 12.2718 11.7169 12.224 11.7638C12.1284 11.8578 12.0328 11.9517 12.1284 12.0927C12.224 12.2806 12.5586 12.7973 13.0845 13.267C13.7538 13.8307 14.2796 14.0186 14.4709 14.1126C14.6621 14.2065 14.7577 14.1596 14.8533 14.0656C14.9489 13.9717 15.2836 13.5959 15.3792 13.408C15.4748 13.2201 15.6182 13.267 15.7616 13.314C15.905 13.361 16.7655 13.7838 16.9089 13.8777C17.1002 13.9717 17.1958 14.0186 17.2436 14.0656C17.2914 14.2065 17.2914 14.5354 17.148 14.9112Z" fill="white"/>
</svg>
